# xmcd
#
# Track frame offsets: 
#        150
#        21553
#        39828
#        52513
#        69473
#        75885
#        89718
#        101733
#        116745
#        131738
#        154179
#        169135
#
# Disc length: 2407 seconds
#
# Revision: 1
# Processed by: cddbd v1.5.2PL0 Copyright (c) Steve Scherf et al.
# Submitted via: ExactAudioCopyFreeDBPlugin 1.0
#
DISCID=9509650c
DTITLE=Various Artist - The introduction to 'Living Country Blues USA
DTITLE=' CD 2
DYEAR=2008
DGENRE=Blues
TTITLE0="Bowling Green" John Cephas and "Harmonica" Phil Wiggins - Reno 
TTITLE0=Factory
TTITLE1=Lonnie Pitchford - My Babe
TTITLE2=Sam "Stretch" Shields - Bluebird Blues
TTITLE3=Flora Molton and The Truth Band - The Titanic
TTITLE4=Joe Savage - Mean Ol' Frisco
TTITLE5=Arzo Youngblood - I Can't Be Successful
TTITLE6=CeDell "Big G" Davis - I Don't Know Why
TTITLE7=Othar Turner and The Rising Star Fife and Drum Band - Tango Twis
TTITLE7=t
TTITLE8=Guitar Slim - Come On In My Kitchen
TTITLE9=Guitar Slim - Lula's Back In Town
TTITLE10=Boyd Rivers - You Got To Move
TTITLE11=Boogie Bill Webb - Big Road Blues
EXTD=
EXTT0=
EXTT1=
EXTT2=
EXTT3=
EXTT4=
EXTT5=
EXTT6=
EXTT7=
EXTT8=
EXTT9=
EXTT10=
EXTT11=
PLAYORDER=
